<?xml version="1.0" encoding="UTF-8" standalone="no"?><svg xmlns="http://www.w3.org/2000/svg" xmlns:xlink="http://www.w3.org/1999/xlink" clip-rule="evenodd" stroke-miterlimit="4.00" viewBox="0 0 1024 768"><desc>SVG generated by Keynote</desc><defs></defs><g transform="matrix(1.00, 0.00, -0.00, -1.00, 0.0, 768.0)"><path d="M 0.0 768.0 L 1024.0 768.0 L 1024.0 0.0 L 0.0 0.0 Z M 0.0 768.0 " fill="#FFFFFF"></path><text xml:space="preserve" font-family="DINCondensed-Bold" font-weight="bold" font-size="136.0" fill="#34A4DA" transform="matrix(1.00, 0.00, -0.00, -1.00, 96.0, 657.0)">S</text><text xml:space="preserve" font-family="DINCondensed-Bold" font-weight="bold" font-size="136.0" fill="#34A4DA" transform="matrix(1.00, 0.00, -0.00, -1.00, 151.2, 657.0)">I</text><text xml:space="preserve" font-family="DINCondensed-Bold" font-weight="bold" font-size="136.0" fill="#34A4DA" transform="matrix(1.00, 0.00, -0.00, -1.00, 179.0, 657.0)">L</text><text xml:space="preserve" font-family="DINCondensed-Bold" font-weight="bold" font-size="136.0" fill="#34A4DA" transform="matrix(1.00, 0.00, -0.00, -1.00, 229.3, 657.0)">L</text><text xml:space="preserve" font-family="DINCondensed-Bold" font-weight="bold" font-size="136.0" fill="#34A4DA" transform="matrix(1.00, 0.00, -0.00, -1.00, 267.1, 657.0)">Y</text><text xml:space="preserve" font-family="DINCondensed-Bold" font-weight="bold" font-size="136.0" fill="#34A4DA" transform="matrix(1.00, 0.00, -0.00, -1.00, 319.9, 657.0)"> </text><text xml:space="preserve" font-family="DINCondensed-Bold" font-weight="bold" font-size="136.0" fill="#34A4DA" transform="matrix(1.00, 0.00, -0.00, -1.00, -3.0, 522.0)">C</text><text xml:space="preserve" font-family="DINCondensed-Bold" font-weight="bold" font-size="136.0" fill="#34A4DA" transform="matrix(1.00, 0.00, -0.00, -1.00, 52.4, 522.0)">O</text><text xml:space="preserve" font-family="DINCondensed-Bold" font-weight="bold" font-size="136.0" fill="#34A4DA" transform="matrix(1.00, 0.00, -0.00, -1.00, 110.3, 522.0)">U</text><text xml:space="preserve" font-family="DINCondensed-Bold" font-weight="bold" font-size="136.0" fill="#34A4DA" transform="matrix(1.00, 0.00, -0.00, -1.00, 168.2, 522.0)">P</text><text xml:space="preserve" font-family="DINCondensed-Bold" font-weight="bold" font-size="136.0" fill="#34A4DA" transform="matrix(1.00, 0.00, -0.00, -1.00, 223.6, 522.0)">L</text><text xml:space="preserve" font-family="DINCondensed-Bold" font-weight="bold" font-size="136.0" fill="#34A4DA" transform="matrix(1.00, 0.00, -0.00, -1.00, 273.9, 522.0)">I</text><text xml:space="preserve" font-family="DINCondensed-Bold" font-weight="bold" font-size="136.0" fill="#34A4DA" transform="matrix(1.00, 0.00, -0.00, -1.00, 301.6, 522.0)">N</text><text xml:space="preserve" font-family="DINCondensed-Bold" font-weight="bold" font-size="136.0" fill="#34A4DA" transform="matrix(1.00, 0.00, -0.00, -1.00, 362.0, 522.0)">G</text><image xlink:href="../../243E6B84-D2A5-4528-A35C-A239CFA77041/assets/1EA48C24921357F1F9692639B545D2D7.png" width="960.00" height="134.00" transform="matrix(1.07, 0.00, -0.00, -1.07, 0.0, 327.0)"></image><image xlink:href="../../243E6B84-D2A5-4528-A35C-A239CFA77041/assets/DA0C81AF841D119F4177DC83C56996B7.jpeg" width="350.00" height="253.00" transform="matrix(1.72, 0.00, -0.00, -1.72, 427.0, 770.0)"></image><image xlink:href="../../243E6B84-D2A5-4528-A35C-A239CFA77041/assets/864C95062CA6DAD6A1CBFEF994818965.png" width="844.00" height="184.00" transform="matrix(1.00, 0.00, -0.00, -1.00, 181.0, 176.0)"></image><path d="M 32.3 0.0 L 353.5 0.0 C 353.5 0.0 353.5 0.0 353.5 0.0 C 371.3 0.0 385.8 14.5 385.8 32.3 C 385.8 32.3 385.8 32.3 385.8 32.3 C 385.8 32.3 385.8 32.3 385.8 32.3 C 385.8 50.2 371.3 64.7 353.5 64.7 C 353.5 64.7 353.5 64.7 353.5 64.7 L 32.3 64.7 C 32.3 64.7 32.3 64.7 32.3 64.7 C 14.5 64.7 0.0 50.2 0.0 32.3 C 0.0 32.3 0.0 32.3 0.0 32.3 C 0.0 32.3 0.0 32.3 0.0 32.3 C 0.0 14.5 14.5 0.0 32.3 0.0 C 32.3 0.0 32.3 0.0 32.3 0.0 Z M 32.3 0.0 " fill="none" stroke="#E42731" stroke-width="4.00" transform="matrix(1.00, 0.00, 0.00, -1.00, 262.4, 154.1)"></path></g></svg>