<?xml version="1.0" encoding="UTF-8" standalone="no"?><svg xmlns="http://www.w3.org/2000/svg" xmlns:xlink="http://www.w3.org/1999/xlink" clip-rule="evenodd" stroke-miterlimit="4.00" viewBox="0 0 1024 768"><desc>SVG generated by Keynote</desc><defs></defs><g transform="matrix(1.00, 0.00, -0.00, -1.00, 0.0, 768.0)"><path d="M 0.0 768.0 L 1024.0 768.0 L 1024.0 0.0 L 0.0 0.0 Z M 0.0 768.0 " fill="#FFFFFF"></path><image xlink:href="../../B0E6FFAA-FAF8-45CF-B6C5-46E5B881B8C7/assets/53A46F7960B3BF802786068192FEA48D.png" width="529.00" height="386.00" transform="matrix(1.00, 0.00, -0.00, -1.00, 490.0, 767.0)"></image><image xlink:href="../../16062589-B5F3-4FF8-96D8-5C4744937C17/assets/172BEB556E2AA8ED3078C8422C5BC492.png" width="490.00" height="382.00" transform="matrix(1.00, 0.00, -0.00, -1.00, 5.0, 766.0)"></image><image xlink:href="../../E954FFDE-36A9-4BA6-AADF-2A477D05D785/assets/F9BD56365EDAAD5865859DE261628258.png" width="529.00" height="367.00" transform="matrix(1.00, 0.00, -0.00, -1.00, 8.0, 377.0)"></image><text xml:space="preserve" font-family="DINCondensed-Bold" font-weight="bold" font-size="141.1" fill="#34A4DA" transform="matrix(1.00, 0.00, -0.00, -1.00, 446.0, 223.0)">W</text><text xml:space="preserve" font-family="DINCondensed-Bold" font-weight="bold" font-size="141.1" fill="#34A4DA" transform="matrix(1.00, 0.00, -0.00, -1.00, 529.7, 223.0)">H</text><text xml:space="preserve" font-family="DINCondensed-Bold" font-weight="bold" font-size="141.1" fill="#34A4DA" transform="matrix(1.00, 0.00, -0.00, -1.00, 589.8, 223.0)">O</text><text xml:space="preserve" font-family="DINCondensed-Bold" font-weight="bold" font-size="141.1" fill="#34A4DA" transform="matrix(1.00, 0.00, -0.00, -1.00, 649.9, 223.0)">D</text><text xml:space="preserve" font-family="DINCondensed-Bold" font-weight="bold" font-size="141.1" fill="#34A4DA" transform="matrix(1.00, 0.00, -0.00, -1.00, 710.0, 223.0)">U</text><text xml:space="preserve" font-family="DINCondensed-Bold" font-weight="bold" font-size="141.1" fill="#34A4DA" transform="matrix(1.00, 0.00, -0.00, -1.00, 770.1, 223.0)">N</text><text xml:space="preserve" font-family="DINCondensed-Bold" font-weight="bold" font-size="141.1" fill="#34A4DA" transform="matrix(1.00, 0.00, -0.00, -1.00, 832.8, 223.0)">I</text><text xml:space="preserve" font-family="DINCondensed-Bold" font-weight="bold" font-size="141.1" fill="#34A4DA" transform="matrix(1.00, 0.00, -0.00, -1.00, 861.5, 223.0)">T</text><text xml:space="preserve" font-family="DINCondensed-Bold" font-weight="bold" font-size="141.1" fill="#34A4DA" transform="matrix(1.00, 0.00, -0.00, -1.00, 908.4, 223.0)">?</text><image xlink:href="../../FE05ECE5-CBC4-4BE3-B664-2BCAC68EE462/assets/0F3F5DA8EFA40A028E169BFB87FD6046.png" width="514.00" height="90.00" transform="matrix(1.00, 0.00, -0.00, -1.00, 548.0, 123.0)"></image></g></svg>