<?xml version="1.0" encoding="UTF-8" standalone="no"?><svg xmlns="http://www.w3.org/2000/svg" xmlns:xlink="http://www.w3.org/1999/xlink" clip-rule="evenodd" stroke-miterlimit="4.00" viewBox="0 0 1024 768"><desc>SVG generated by Keynote</desc><defs></defs><g transform="matrix(1.00, 0.00, -0.00, -1.00, 0.0, 768.0)"><path d="M 0.0 768.0 L 1024.0 768.0 L 1024.0 0.0 L 0.0 0.0 Z M 0.0 768.0 " fill="#212121"></path><path d="M 0.0 0.0 L 528.0 0.0 " fill="none" stroke="#A6AAA8" stroke-width="3.00" transform="matrix(1.00, 0.00, 0.00, -1.00, 464.0, 284.5)"></path><text xml:space="preserve" font-family="DINCondensed-Bold" font-weight="bold" font-size="170.0" fill="#34A4DA" transform="matrix(1.00, 0.00, -0.00, -1.00, 468.0, 137.0)">N</text><text xml:space="preserve" font-family="DINCondensed-Bold" font-weight="bold" font-size="170.0" fill="#34A4DA" transform="matrix(1.00, 0.00, -0.00, -1.00, 543.5, 137.0)">E</text><text xml:space="preserve" font-family="DINCondensed-Bold" font-weight="bold" font-size="170.0" fill="#34A4DA" transform="matrix(1.00, 0.00, -0.00, -1.00, 606.4, 137.0)">W</text><text xml:space="preserve" font-family="DINCondensed-Bold" font-weight="bold" font-size="170.0" fill="#34A4DA" transform="matrix(1.00, 0.00, -0.00, -1.00, 707.2, 137.0)">W</text><text xml:space="preserve" font-family="DINCondensed-Bold" font-weight="bold" font-size="170.0" fill="#34A4DA" transform="matrix(1.00, 0.00, -0.00, -1.00, 808.0, 137.0)">W</text><text xml:space="preserve" font-family="DINAlternate-Bold" font-weight="bold" font-size="54.0" fill="#A6AAA9" transform="matrix(1.00, 0.00, -0.00, -1.00, 468.0, 306.0)">T</text><text xml:space="preserve" font-family="DINAlternate-Bold" font-weight="bold" font-size="54.0" fill="#A6AAA9" transform="matrix(1.00, 0.00, -0.00, -1.00, 495.0, 306.0)">H</text><text xml:space="preserve" font-family="DINAlternate-Bold" font-weight="bold" font-size="54.0" fill="#A6AAA9" transform="matrix(1.00, 0.00, -0.00, -1.00, 530.0, 306.0)">E</text><text xml:space="preserve" font-family="DINAlternate-Bold" font-weight="bold" font-size="54.0" fill="#A6AAA9" transform="matrix(1.00, 0.00, -0.00, -1.00, 560.0, 306.0)"> </text><text xml:space="preserve" font-family="DINAlternate-Bold" font-weight="bold" font-size="54.0" fill="#A6AAA9" transform="matrix(1.00, 0.00, -0.00, -1.00, 573.0, 306.0)">M</text><text xml:space="preserve" font-family="DINAlternate-Bold" font-weight="bold" font-size="54.0" fill="#A6AAA9" transform="matrix(1.00, 0.00, -0.00, -1.00, 613.9, 306.0)">A</text><text xml:space="preserve" font-family="DINAlternate-Bold" font-weight="bold" font-size="54.0" fill="#A6AAA9" transform="matrix(1.00, 0.00, -0.00, -1.00, 646.8, 306.0)">N</text><text xml:space="preserve" font-family="DINAlternate-Bold" font-weight="bold" font-size="54.0" fill="#A6AAA9" transform="matrix(1.00, 0.00, -0.00, -1.00, 683.7, 306.0)">I</text><text xml:space="preserve" font-family="DINAlternate-Bold" font-weight="bold" font-size="54.0" fill="#A6AAA9" transform="matrix(1.00, 0.00, -0.00, -1.00, 697.6, 306.0)">P</text><text xml:space="preserve" font-family="DINAlternate-Bold" font-weight="bold" font-size="54.0" fill="#A6AAA9" transform="matrix(1.00, 0.00, -0.00, -1.00, 729.6, 306.0)">U</text><text xml:space="preserve" font-family="DINAlternate-Bold" font-weight="bold" font-size="54.0" fill="#A6AAA9" transform="matrix(1.00, 0.00, -0.00, -1.00, 763.6, 306.0)">L</text><text xml:space="preserve" font-family="DINAlternate-Bold" font-weight="bold" font-size="54.0" fill="#A6AAA9" transform="matrix(1.00, 0.00, -0.00, -1.00, 793.7, 306.0)">A</text><text xml:space="preserve" font-family="DINAlternate-Bold" font-weight="bold" font-size="54.0" fill="#A6AAA9" transform="matrix(1.00, 0.00, -0.00, -1.00, 822.6, 306.0)">T</text><text xml:space="preserve" font-family="DINAlternate-Bold" font-weight="bold" font-size="54.0" fill="#A6AAA9" transform="matrix(1.00, 0.00, -0.00, -1.00, 848.6, 306.0)">O</text><text xml:space="preserve" font-family="DINAlternate-Bold" font-weight="bold" font-size="54.0" fill="#A6AAA9" transform="matrix(1.00, 0.00, -0.00, -1.00, 881.5, 306.0)">R</text><image xlink:href="../../59445133-513E-4111-A599-3C23197D6F5C/assets/FDDA6DB804E3CAA2A6BD8811B295B48F.jpeg" width="424.00" height="640.00" transform="matrix(1.21, 0.00, -0.00, -1.21, -61.0, 771.0)"></image><text xml:space="preserve" font-family="LucidaGrande" font-size="29.4" fill="#34A4DA" transform="matrix(1.00, 0.00, -0.00, -1.00, 484.0, 398.0)">▸</text><text xml:space="preserve" font-family="AvenirNext-Medium" font-size="28.0" fill="#838686" transform="matrix(1.00, 0.00, -0.00, -1.00, 519.0, 400.0)">P</text><text xml:space="preserve" font-family="AvenirNext-Medium" font-size="28.0" fill="#838686" transform="matrix(1.00, 0.00, -0.00, -1.00, 534.4, 400.0)">r</text><text xml:space="preserve" font-family="AvenirNext-Medium" font-size="28.0" fill="#838686" transform="matrix(1.00, 0.00, -0.00, -1.00, 544.0, 400.0)">e</text><text xml:space="preserve" font-family="AvenirNext-Medium" font-size="28.0" fill="#838686" transform="matrix(1.00, 0.00, -0.00, -1.00, 560.0, 400.0)">t</text><text xml:space="preserve" font-family="AvenirNext-Medium" font-size="28.0" fill="#838686" transform="matrix(1.00, 0.00, -0.00, -1.00, 568.8, 400.0)">t</text><text xml:space="preserve" font-family="AvenirNext-Medium" font-size="28.0" fill="#838686" transform="matrix(1.00, 0.00, -0.00, -1.00, 578.1, 400.0)">y</text><text xml:space="preserve" font-family="AvenirNext-Medium" font-size="28.0" fill="#838686" transform="matrix(1.00, 0.00, -0.00, -1.00, 592.2, 400.0)"> </text><text xml:space="preserve" font-family="AvenirNext-Medium" font-size="28.0" fill="#838686" transform="matrix(1.00, 0.00, -0.00, -1.00, 599.2, 400.0)">o</text><text xml:space="preserve" font-family="AvenirNext-Medium" font-size="28.0" fill="#838686" transform="matrix(1.00, 0.00, -0.00, -1.00, 616.2, 400.0)">n</text><text xml:space="preserve" font-family="AvenirNext-Medium" font-size="28.0" fill="#838686" transform="matrix(1.00, 0.00, -0.00, -1.00, 632.5, 400.0)"> </text><text xml:space="preserve" font-family="AvenirNext-Medium" font-size="28.0" fill="#838686" transform="matrix(1.00, 0.00, -0.00, -1.00, 639.5, 400.0)">t</text><text xml:space="preserve" font-family="AvenirNext-Medium" font-size="28.0" fill="#838686" transform="matrix(1.00, 0.00, -0.00, -1.00, 648.8, 400.0)">h</text><text xml:space="preserve" font-family="AvenirNext-Medium" font-size="28.0" fill="#838686" transform="matrix(1.00, 0.00, -0.00, -1.00, 665.1, 400.0)">e</text><text xml:space="preserve" font-family="AvenirNext-Medium" font-size="28.0" fill="#838686" transform="matrix(1.00, 0.00, -0.00, -1.00, 681.1, 400.0)"> </text><text xml:space="preserve" font-family="AvenirNext-Medium" font-size="28.0" fill="#838686" transform="matrix(1.00, 0.00, -0.00, -1.00, 688.1, 400.0)">o</text><text xml:space="preserve" font-family="AvenirNext-Medium" font-size="28.0" fill="#838686" transform="matrix(1.00, 0.00, -0.00, -1.00, 705.2, 400.0)">u</text><text xml:space="preserve" font-family="AvenirNext-Medium" font-size="28.0" fill="#838686" transform="matrix(1.00, 0.00, -0.00, -1.00, 721.5, 400.0)">t</text><text xml:space="preserve" font-family="AvenirNext-Medium" font-size="28.0" fill="#838686" transform="matrix(1.00, 0.00, -0.00, -1.00, 730.7, 400.0)">s</text><text xml:space="preserve" font-family="AvenirNext-Medium" font-size="28.0" fill="#838686" transform="matrix(1.00, 0.00, -0.00, -1.00, 743.2, 400.0)">i</text><text xml:space="preserve" font-family="AvenirNext-Medium" font-size="28.0" fill="#838686" transform="matrix(1.00, 0.00, -0.00, -1.00, 750.4, 400.0)">d</text><text xml:space="preserve" font-family="AvenirNext-Medium" font-size="28.0" fill="#838686" transform="matrix(1.00, 0.00, -0.00, -1.00, 768.2, 400.0)">e</text></g></svg>