<?xml version="1.0" encoding="UTF-8" standalone="no"?><svg xmlns="http://www.w3.org/2000/svg" xmlns:xlink="http://www.w3.org/1999/xlink" clip-rule="evenodd" stroke-miterlimit="4.00" viewBox="0 0 1024 768"><desc>SVG generated by Keynote</desc><defs></defs><g transform="matrix(1.00, 0.00, -0.00, -1.00, 0.0, 768.0)"><path d="M 0.0 768.0 L 1024.0 768.0 L 1024.0 0.0 L 0.0 0.0 Z M 0.0 768.0 " fill="#FFFFFF"></path><image xlink:href="../../FE05ECE5-CBC4-4BE3-B664-2BCAC68EE462/assets/0F3F5DA8EFA40A028E169BFB87FD6046.png" width="514.00" height="90.00" transform="matrix(1.00, 0.00, -0.00, -1.00, 548.0, 123.0)"></image><path d="M 18.2 0.0 L 257.8 0.0 C 257.8 0.0 257.8 0.0 257.8 0.0 C 267.8 0.0 276.0 8.1 276.0 18.2 C 276.0 18.2 276.0 18.2 276.0 18.2 C 276.0 18.2 276.0 18.2 276.0 18.2 C 276.0 28.2 267.8 36.4 257.8 36.4 C 257.8 36.4 257.8 36.4 257.8 36.4 L 18.2 36.4 C 18.2 36.4 18.2 36.4 18.2 36.4 C 8.1 36.4 0.0 28.2 0.0 18.2 C 0.0 18.2 0.0 18.2 0.0 18.2 C 0.0 18.2 0.0 18.2 0.0 18.2 C 0.0 8.1 8.1 0.0 18.2 0.0 C 18.2 0.0 18.2 0.0 18.2 0.0 Z M 18.2 0.0 " fill="none" stroke="#E42731" stroke-width="4.00" transform="matrix(1.00, 0.00, 0.00, -1.00, 579.5, 77.9)"></path><image xlink:href="../../770F64D2-9AF5-493C-B89E-0C9D027D0E08/assets/C5A8D4CFCC9616E1FD3C04462E553CDB.jpeg" width="542.00" height="768.00" transform="matrix(1.00, 0.00, -0.00, -1.00, -2.0, 768.0)"></image><text xml:space="preserve" font-family="DINCondensed-Bold" font-weight="bold" font-size="170.0" fill="#34A4DA" transform="matrix(1.00, 0.00, -0.00, -1.00, 547.0, 619.0)">S</text><text xml:space="preserve" font-family="DINCondensed-Bold" font-weight="bold" font-size="170.0" fill="#34A4DA" transform="matrix(1.00, 0.00, -0.00, -1.00, 616.0, 619.0)">U</text><text xml:space="preserve" font-family="DINCondensed-Bold" font-weight="bold" font-size="170.0" fill="#34A4DA" transform="matrix(1.00, 0.00, -0.00, -1.00, 688.4, 619.0)">S</text><text xml:space="preserve" font-family="DINCondensed-Bold" font-weight="bold" font-size="170.0" fill="#34A4DA" transform="matrix(1.00, 0.00, -0.00, -1.00, 757.5, 619.0)">P</text><text xml:space="preserve" font-family="DINCondensed-Bold" font-weight="bold" font-size="170.0" fill="#34A4DA" transform="matrix(1.00, 0.00, -0.00, -1.00, 826.7, 619.0)">E</text><text xml:space="preserve" font-family="DINCondensed-Bold" font-weight="bold" font-size="170.0" fill="#34A4DA" transform="matrix(1.00, 0.00, -0.00, -1.00, 889.6, 619.0)">C</text><text xml:space="preserve" font-family="DINCondensed-Bold" font-weight="bold" font-size="170.0" fill="#34A4DA" transform="matrix(1.00, 0.00, -0.00, -1.00, 958.7, 619.0)">T</text><path d="M 778.2 148.7 L 744.2 148.7 L 794.2 84.7 L 844.2 148.7 L 810.2 148.7 L 810.2 594.2 L 778.2 594.2 Z M 778.2 148.7 " fill="#34A4DA"></path></g></svg>