<?xml version="1.0" encoding="UTF-8" standalone="no"?><svg xmlns="http://www.w3.org/2000/svg" xmlns:xlink="http://www.w3.org/1999/xlink" clip-rule="evenodd" stroke-miterlimit="4.00" viewBox="0 0 1024 768"><desc>SVG generated by Keynote</desc><defs></defs><g transform="matrix(1.00, 0.00, -0.00, -1.00, 0.0, 768.0)"><path d="M 0.0 768.0 L 1024.0 768.0 L 1024.0 0.0 L 0.0 0.0 Z M 0.0 768.0 " fill="#34A4DA"></path><text xml:space="preserve" font-family="DINCondensed-Bold" font-weight="bold" font-size="94.0" fill="#FFFFFF" transform="matrix(1.00, 0.00, -0.00, -1.00, 287.0, 669.0)">W</text><text xml:space="preserve" font-family="DINCondensed-Bold" font-weight="bold" font-size="94.0" fill="#FFFFFF" transform="matrix(1.00, 0.00, -0.00, -1.00, 339.9, 669.0)">A</text><text xml:space="preserve" font-family="DINCondensed-Bold" font-weight="bold" font-size="94.0" fill="#FFFFFF" transform="matrix(1.00, 0.00, -0.00, -1.00, 378.2, 669.0)">I</text><text xml:space="preserve" font-family="DINCondensed-Bold" font-weight="bold" font-size="94.0" fill="#FFFFFF" transform="matrix(1.00, 0.00, -0.00, -1.00, 397.4, 669.0)">T</text><text xml:space="preserve" font-family="DINCondensed-Bold" font-weight="bold" font-size="94.0" fill="#FFFFFF" transform="matrix(1.00, 0.00, -0.00, -1.00, 419.9, 669.0)">,</text><text xml:space="preserve" font-family="DINCondensed-Bold" font-weight="bold" font-size="94.0" fill="#FFFFFF" transform="matrix(1.00, 0.00, -0.00, -1.00, 437.4, 669.0)"> </text><text xml:space="preserve" font-family="DINCondensed-Bold" font-weight="bold" font-size="94.0" fill="#FFFFFF" transform="matrix(1.00, 0.00, -0.00, -1.00, 454.9, 669.0)">W</text><text xml:space="preserve" font-family="DINCondensed-Bold" font-weight="bold" font-size="94.0" fill="#FFFFFF" transform="matrix(1.00, 0.00, -0.00, -1.00, 510.6, 669.0)">H</text><text xml:space="preserve" font-family="DINCondensed-Bold" font-weight="bold" font-size="94.0" fill="#FFFFFF" transform="matrix(1.00, 0.00, -0.00, -1.00, 550.7, 669.0)">U</text><text xml:space="preserve" font-family="DINCondensed-Bold" font-weight="bold" font-size="94.0" fill="#FFFFFF" transform="matrix(1.00, 0.00, -0.00, -1.00, 590.7, 669.0)">U</text><text xml:space="preserve" font-family="DINCondensed-Bold" font-weight="bold" font-size="94.0" fill="#FFFFFF" transform="matrix(1.00, 0.00, -0.00, -1.00, 630.8, 669.0)">U</text><text xml:space="preserve" font-family="DINCondensed-Bold" font-weight="bold" font-size="94.0" fill="#FFFFFF" transform="matrix(1.00, 0.00, -0.00, -1.00, 670.8, 669.0)">T</text><text xml:space="preserve" font-family="DINCondensed-Bold" font-weight="bold" font-size="94.0" fill="#FFFFFF" transform="matrix(1.00, 0.00, -0.00, -1.00, 702.0, 669.0)">?</text><image xlink:href="275D8E82B6D2AA95349DB88B9164ED57.png" width="626.00" height="540.00" transform="matrix(1.42, 0.00, -0.00, -1.42, 67.0, 633.0)"></image></g></svg>