<?xml version="1.0" encoding="UTF-8" standalone="no"?><svg xmlns="http://www.w3.org/2000/svg" xmlns:xlink="http://www.w3.org/1999/xlink" clip-rule="evenodd" stroke-miterlimit="4.00" viewBox="0 0 1024 768"><desc>SVG generated by Keynote</desc><defs></defs><g transform="matrix(1.00, 0.00, -0.00, -1.00, 0.0, 768.0)"><path d="M 0.0 768.0 L 1024.0 768.0 L 1024.0 0.0 L 0.0 0.0 Z M 0.0 768.0 " fill="#FFFFFF"></path><image xlink:href="../../E954FFDE-36A9-4BA6-AADF-2A477D05D785/assets/F9BD56365EDAAD5865859DE261628258.png" width="529.00" height="367.00" transform="matrix(1.00, 0.00, -0.00, -1.00, 8.0, 377.0)"></image><text xml:space="preserve" font-family="DINCondensed-Bold" font-weight="bold" font-size="170.0" fill="#34A4DA" transform="matrix(1.00, 0.00, -0.00, -1.00, 546.0, 126.0)">S</text><text xml:space="preserve" font-family="DINCondensed-Bold" font-weight="bold" font-size="170.0" fill="#34A4DA" transform="matrix(1.00, 0.00, -0.00, -1.00, 615.0, 126.0)">U</text><text xml:space="preserve" font-family="DINCondensed-Bold" font-weight="bold" font-size="170.0" fill="#34A4DA" transform="matrix(1.00, 0.00, -0.00, -1.00, 687.4, 126.0)">S</text><text xml:space="preserve" font-family="DINCondensed-Bold" font-weight="bold" font-size="170.0" fill="#34A4DA" transform="matrix(1.00, 0.00, -0.00, -1.00, 756.5, 126.0)">P</text><text xml:space="preserve" font-family="DINCondensed-Bold" font-weight="bold" font-size="170.0" fill="#34A4DA" transform="matrix(1.00, 0.00, -0.00, -1.00, 825.7, 126.0)">E</text><text xml:space="preserve" font-family="DINCondensed-Bold" font-weight="bold" font-size="170.0" fill="#34A4DA" transform="matrix(1.00, 0.00, -0.00, -1.00, 888.6, 126.0)">C</text><text xml:space="preserve" font-family="DINCondensed-Bold" font-weight="bold" font-size="170.0" fill="#34A4DA" transform="matrix(1.00, 0.00, -0.00, -1.00, 957.7, 126.0)">T</text><path d="M 61.4 0.0 L 335.0 0.0 C 352.6 0.0 361.6 0.0 371.1 3.0 C 381.5 6.8 389.7 15.0 393.4 25.4 C 396.5 34.9 396.5 43.8 396.5 61.7 L 396.5 104.8 C 396.5 122.4 396.5 131.3 393.4 140.8 C 389.7 151.2 381.5 159.4 371.1 163.2 C 361.6 166.2 352.6 166.2 334.7 166.2 L 61.4 166.2 C 43.8 166.2 34.9 166.2 25.4 163.2 C 15.0 159.4 6.8 151.2 3.0 140.8 C 0.0 131.3 0.0 122.4 0.0 104.5 L 0.0 61.4 C 0.0 43.8 0.0 34.9 3.0 25.4 C 6.8 15.0 15.0 6.8 25.4 3.0 C 34.9 0.0 43.8 0.0 61.7 0.0 Z M 61.4 0.0 " fill="none" stroke="#E42731" stroke-width="4.00" transform="matrix(1.00, 0.00, 0.00, -1.00, 35.6, 263.9)"></path><path d="M 475.9 196.8 L 475.9 230.8 L 411.9 180.8 L 475.9 130.8 L 475.9 164.8 L 541.1 164.8 L 541.1 196.8 Z M 475.9 196.8 " fill="#34A4DA"></path><image xlink:href="08927ECB9CC79071D97C92EDFCDDF3C1.png" width="500.00" height="282.00" transform="matrix(1.32, 0.00, -0.00, -1.32, -109.0, 768.0)"></image></g></svg>