<?xml version="1.0" encoding="UTF-8" standalone="no"?><svg xmlns="http://www.w3.org/2000/svg" xmlns:xlink="http://www.w3.org/1999/xlink" clip-rule="evenodd" stroke-miterlimit="4.00" viewBox="0 0 1024 768"><desc>SVG generated by Keynote</desc><defs></defs><g transform="matrix(1.00, 0.00, -0.00, -1.00, 0.0, 768.0)"><path d="M 0.0 768.0 L 1024.0 768.0 L 1024.0 0.0 L 0.0 0.0 Z M 0.0 768.0 " fill="#34A4DA"></path><text xml:space="preserve" font-family="DINCondensed-Bold" font-weight="bold" font-size="94.0" fill="#FFFFFF" transform="matrix(1.00, 0.00, -0.00, -1.00, 260.0, 669.0)">O</text><text xml:space="preserve" font-family="DINCondensed-Bold" font-weight="bold" font-size="94.0" fill="#FFFFFF" transform="matrix(1.00, 0.00, -0.00, -1.00, 300.0, 669.0)">H</text><text xml:space="preserve" font-family="DINCondensed-Bold" font-weight="bold" font-size="94.0" fill="#FFFFFF" transform="matrix(1.00, 0.00, -0.00, -1.00, 340.1, 669.0)"> </text><text xml:space="preserve" font-family="DINCondensed-Bold" font-weight="bold" font-size="94.0" fill="#FFFFFF" transform="matrix(1.00, 0.00, -0.00, -1.00, 357.6, 669.0)">C</text><text xml:space="preserve" font-family="DINCondensed-Bold" font-weight="bold" font-size="94.0" fill="#FFFFFF" transform="matrix(1.00, 0.00, -0.00, -1.00, 395.8, 669.0)">O</text><text xml:space="preserve" font-family="DINCondensed-Bold" font-weight="bold" font-size="94.0" fill="#FFFFFF" transform="matrix(1.00, 0.00, -0.00, -1.00, 435.9, 669.0)">O</text><text xml:space="preserve" font-family="DINCondensed-Bold" font-weight="bold" font-size="94.0" fill="#FFFFFF" transform="matrix(1.00, 0.00, -0.00, -1.00, 475.9, 669.0)">L</text><text xml:space="preserve" font-family="DINCondensed-Bold" font-weight="bold" font-size="94.0" fill="#FFFFFF" transform="matrix(1.00, 0.00, -0.00, -1.00, 510.7, 669.0)">,</text><text xml:space="preserve" font-family="DINCondensed-Bold" font-weight="bold" font-size="94.0" fill="#FFFFFF" transform="matrix(1.00, 0.00, -0.00, -1.00, 528.2, 669.0)"> </text><text xml:space="preserve" font-family="DINCondensed-Bold" font-weight="bold" font-size="94.0" fill="#FFFFFF" transform="matrix(1.00, 0.00, -0.00, -1.00, 545.7, 669.0)">E</text><text xml:space="preserve" font-family="DINCondensed-Bold" font-weight="bold" font-size="94.0" fill="#FFFFFF" transform="matrix(1.00, 0.00, -0.00, -1.00, 580.4, 669.0)">M</text><text xml:space="preserve" font-family="DINCondensed-Bold" font-weight="bold" font-size="94.0" fill="#FFFFFF" transform="matrix(1.00, 0.00, -0.00, -1.00, 632.7, 669.0)">A</text><text xml:space="preserve" font-family="DINCondensed-Bold" font-weight="bold" font-size="94.0" fill="#FFFFFF" transform="matrix(1.00, 0.00, -0.00, -1.00, 671.0, 669.0)">I</text><text xml:space="preserve" font-family="DINCondensed-Bold" font-weight="bold" font-size="94.0" fill="#FFFFFF" transform="matrix(1.00, 0.00, -0.00, -1.00, 690.1, 669.0)">L</text><text xml:space="preserve" font-family="DINCondensed-Bold" font-weight="bold" font-size="94.0" fill="#FFFFFF" transform="matrix(1.00, 0.00, -0.00, -1.00, 724.9, 669.0)">S</text><image xlink:href="../../0C27573D-469E-4C85-8CEA-67E094300D38/assets/D80871B0C2B6ECB021AFB429411B5AF8.png" width="626.00" height="540.00" transform="matrix(1.42, 0.00, -0.00, -1.42, 67.0, 633.0)"></image><path d="M 18.3 0.0 L 84.1 0.0 C 84.1 0.0 84.1 0.0 84.1 0.0 C 94.2 0.0 102.4 8.2 102.4 18.3 C 102.4 18.3 102.4 18.3 102.4 18.3 C 102.4 18.3 102.4 18.3 102.4 18.3 C 102.4 28.4 94.2 36.6 84.1 36.6 C 84.1 36.6 84.1 36.6 84.1 36.6 L 18.3 36.6 C 18.3 36.6 18.3 36.6 18.3 36.6 C 8.2 36.6 0.0 28.4 0.0 18.3 C 0.0 18.3 0.0 18.3 0.0 18.3 C 0.0 18.3 0.0 18.3 0.0 18.3 C 0.0 8.2 8.2 0.0 18.3 0.0 C 18.3 0.0 18.3 0.0 18.3 0.0 Z M 18.3 0.0 " fill="none" stroke="#E42731" stroke-width="4.00" transform="matrix(1.00, 0.00, 0.00, -1.00, 113.6, 527.3)"></path><path d="M 18.3 0.0 L 84.1 0.0 C 84.1 0.0 84.1 0.0 84.1 0.0 C 94.2 0.0 102.4 8.2 102.4 18.3 C 102.4 18.3 102.4 18.3 102.4 18.3 C 102.4 18.3 102.4 18.3 102.4 18.3 C 102.4 28.4 94.2 36.6 84.1 36.6 C 84.1 36.6 84.1 36.6 84.1 36.6 L 18.3 36.6 C 18.3 36.6 18.3 36.6 18.3 36.6 C 8.2 36.6 0.0 28.4 0.0 18.3 C 0.0 18.3 0.0 18.3 0.0 18.3 C 0.0 18.3 0.0 18.3 0.0 18.3 C 0.0 8.2 8.2 0.0 18.3 0.0 C 18.3 0.0 18.3 0.0 18.3 0.0 Z M 18.3 0.0 " fill="none" stroke="#E42731" stroke-width="4.00" transform="matrix(1.00, 0.00, 0.00, -1.00, 387.0, 538.6)"></path><path d="M 28.3 0.0 L 51.7 0.0 C 59.8 0.0 63.9 0.0 68.2 1.4 C 73.0 3.1 76.8 6.9 78.5 11.7 C 79.9 16.0 79.9 20.2 79.9 28.4 L 79.9 42.6 C 79.9 50.7 79.9 54.8 78.5 59.2 C 76.8 64.0 73.0 67.7 68.2 69.5 C 63.9 70.9 59.8 70.9 51.5 70.9 L 28.3 70.9 C 20.2 70.9 16.0 70.9 11.7 69.5 C 6.9 67.7 3.1 64.0 1.4 59.2 C 0.0 54.8 0.0 50.7 0.0 42.5 L 0.0 28.3 C 0.0 20.2 0.0 16.0 1.4 11.7 C 3.1 6.9 6.9 3.1 11.7 1.4 C 16.0 0.0 20.2 0.0 28.4 0.0 Z M 28.3 0.0 " fill="none" stroke="#E42731" stroke-width="4.00" transform="matrix(1.00, 0.00, 0.00, -1.00, 821.0, 544.4)"></path></g></svg>