<?xml version="1.0" encoding="UTF-8" standalone="no"?><svg xmlns="http://www.w3.org/2000/svg" xmlns:xlink="http://www.w3.org/1999/xlink" clip-rule="evenodd" stroke-miterlimit="4.00" viewBox="0 0 1024 768"><desc>SVG generated by Keynote</desc><defs></defs><g transform="matrix(1.00, 0.00, -0.00, -1.00, 0.0, 768.0)"><path d="M 0.0 768.0 L 1024.0 768.0 L 1024.0 0.0 L 0.0 0.0 Z M 0.0 768.0 " fill="#FFFFFF"></path><image xlink:href="../../B0E6FFAA-FAF8-45CF-B6C5-46E5B881B8C7/assets/53A46F7960B3BF802786068192FEA48D.png" width="529.00" height="386.00" transform="matrix(1.00, 0.00, -0.00, -1.00, 490.0, 767.0)"></image><image xlink:href="../../16062589-B5F3-4FF8-96D8-5C4744937C17/assets/172BEB556E2AA8ED3078C8422C5BC492.png" width="490.00" height="382.00" transform="matrix(1.00, 0.00, -0.00, -1.00, 5.0, 766.0)"></image><image xlink:href="../../E954FFDE-36A9-4BA6-AADF-2A477D05D785/assets/F9BD56365EDAAD5865859DE261628258.png" width="529.00" height="367.00" transform="matrix(1.00, 0.00, -0.00, -1.00, 8.0, 377.0)"></image><path d="M 57.6 0.0 L 303.4 0.0 C 319.9 0.0 328.3 0.0 337.2 2.8 C 347.0 6.4 354.7 14.0 358.2 23.8 C 361.0 32.7 361.0 41.1 361.0 57.9 L 361.0 191.2 C 361.0 207.7 361.0 216.1 358.2 225.0 C 354.7 234.8 347.0 242.4 337.2 246.0 C 328.3 248.8 319.9 248.8 303.2 248.8 L 57.6 248.8 C 41.1 248.8 32.7 248.8 23.8 246.0 C 14.0 242.4 6.4 234.8 2.8 225.0 C 0.0 216.1 0.0 207.7 0.0 191.0 L 0.0 57.6 C 0.0 41.1 0.0 32.7 2.8 23.8 C 6.4 14.0 14.0 6.4 23.8 2.8 C 32.7 0.0 41.1 0.0 57.9 0.0 Z M 57.6 0.0 " fill="none" stroke="#E42731" stroke-width="4.00" transform="matrix(1.00, 0.00, 0.00, -1.00, 61.6, 767.1)"></path><path d="M 67.7 0.0 L 437.4 0.0 C 456.8 0.0 466.7 0.0 477.1 3.3 C 488.6 7.5 497.6 16.5 501.8 28.0 C 505.1 38.4 505.1 48.3 505.1 68.0 L 505.1 224.8 C 505.1 244.3 505.1 254.1 501.8 264.6 C 497.6 276.1 488.6 285.1 477.1 289.2 C 466.7 292.6 456.8 292.6 437.1 292.6 L 67.7 292.6 C 48.3 292.6 38.4 292.6 28.0 289.2 C 16.5 285.1 7.5 276.1 3.3 264.6 C 0.0 254.1 0.0 244.3 0.0 224.5 L 0.0 67.7 C 0.0 48.3 0.0 38.4 3.3 28.0 C 7.5 16.5 16.5 7.5 28.0 3.3 C 38.4 0.0 48.3 0.0 68.0 0.0 Z M 67.7 0.0 " fill="none" stroke="#E42731" stroke-width="4.00" transform="matrix(1.00, 0.00, 0.00, -1.00, 507.4, 767.1)"></path><path d="M 402.4 404.6 L 382.0 431.9 L 360.6 353.5 L 441.8 351.8 L 421.5 379.0 L 547.6 473.1 L 528.4 498.8 Z M 402.4 404.6 " fill="#34A4DA"></path><path d="M 61.4 0.0 L 335.0 0.0 C 352.6 0.0 361.6 0.0 371.1 3.0 C 381.5 6.8 389.7 15.0 393.4 25.4 C 396.5 34.9 396.5 43.8 396.5 61.7 L 396.5 104.8 C 396.5 122.4 396.5 131.3 393.4 140.8 C 389.7 151.2 381.5 159.4 371.1 163.2 C 361.6 166.2 352.6 166.2 334.7 166.2 L 61.4 166.2 C 43.8 166.2 34.9 166.2 25.4 163.2 C 15.0 159.4 6.8 151.2 3.0 140.8 C 0.0 131.3 0.0 122.4 0.0 104.5 L 0.0 61.4 C 0.0 43.8 0.0 34.9 3.0 25.4 C 6.8 15.0 15.0 6.8 25.4 3.0 C 34.9 0.0 43.8 0.0 61.7 0.0 Z M 61.4 0.0 " fill="none" stroke="#E42731" stroke-width="4.00" transform="matrix(1.00, 0.00, 0.00, -1.00, 35.6, 263.9)"></path><path d="M 490.6 683.8 L 515.3 660.5 L 522.7 741.4 L 442.4 728.9 L 467.2 705.7 L 359.6 590.9 L 382.9 569.0 Z M 490.6 683.8 " fill="#34A4DA"></path><text xml:space="preserve" font-family="DINCondensed-Bold" font-weight="bold" font-size="102.0" fill="#34A4DA" transform="matrix(1.00, 0.00, -0.00, -1.00, 663.0, 282.0)">E</text><text xml:space="preserve" font-family="DINCondensed-Bold" font-weight="bold" font-size="102.0" fill="#34A4DA" transform="matrix(1.00, 0.00, -0.00, -1.00, 700.7, 282.0)">M</text><text xml:space="preserve" font-family="DINCondensed-Bold" font-weight="bold" font-size="102.0" fill="#34A4DA" transform="matrix(1.00, 0.00, -0.00, -1.00, 757.5, 282.0)">A</text><text xml:space="preserve" font-family="DINCondensed-Bold" font-weight="bold" font-size="102.0" fill="#34A4DA" transform="matrix(1.00, 0.00, -0.00, -1.00, 799.0, 282.0)">I</text><text xml:space="preserve" font-family="DINCondensed-Bold" font-weight="bold" font-size="102.0" fill="#34A4DA" transform="matrix(1.00, 0.00, -0.00, -1.00, 819.8, 282.0)">L</text><text xml:space="preserve" font-family="DINCondensed-Bold" font-weight="bold" font-size="102.0" fill="#34A4DA" transform="matrix(1.00, 0.00, -0.00, -1.00, 857.5, 282.0)">-</text><text xml:space="preserve" font-family="DINCondensed-Bold" font-weight="bold" font-size="102.0" fill="#34A4DA" transform="matrix(1.00, 0.00, -0.00, -1.00, 602.0, 181.0)">T</text><text xml:space="preserve" font-family="DINCondensed-Bold" font-weight="bold" font-size="102.0" fill="#34A4DA" transform="matrix(1.00, 0.00, -0.00, -1.00, 635.9, 181.0)">E</text><text xml:space="preserve" font-family="DINCondensed-Bold" font-weight="bold" font-size="102.0" fill="#34A4DA" transform="matrix(1.00, 0.00, -0.00, -1.00, 673.6, 181.0)">M</text><text xml:space="preserve" font-family="DINCondensed-Bold" font-weight="bold" font-size="102.0" fill="#34A4DA" transform="matrix(1.00, 0.00, -0.00, -1.00, 730.3, 181.0)">P</text><text xml:space="preserve" font-family="DINCondensed-Bold" font-weight="bold" font-size="102.0" fill="#34A4DA" transform="matrix(1.00, 0.00, -0.00, -1.00, 771.8, 181.0)">L</text><text xml:space="preserve" font-family="DINCondensed-Bold" font-weight="bold" font-size="102.0" fill="#34A4DA" transform="matrix(1.00, 0.00, -0.00, -1.00, 809.6, 181.0)">A</text><text xml:space="preserve" font-family="DINCondensed-Bold" font-weight="bold" font-size="102.0" fill="#34A4DA" transform="matrix(1.00, 0.00, -0.00, -1.00, 845.5, 181.0)">T</text><text xml:space="preserve" font-family="DINCondensed-Bold" font-weight="bold" font-size="102.0" fill="#34A4DA" transform="matrix(1.00, 0.00, -0.00, -1.00, 879.3, 181.0)">E</text><text xml:space="preserve" font-family="DINCondensed-Bold" font-weight="bold" font-size="102.0" fill="#34A4DA" transform="matrix(1.00, 0.00, -0.00, -1.00, 917.1, 181.0)">S</text><image xlink:href="../../FE05ECE5-CBC4-4BE3-B664-2BCAC68EE462/assets/0F3F5DA8EFA40A028E169BFB87FD6046.png" width="514.00" height="90.00" transform="matrix(1.00, 0.00, -0.00, -1.00, 548.0, 123.0)"></image><path d="M 490.5 141.4 L 475.4 111.0 L 554.9 127.3 L 519.8 200.6 L 504.7 170.1 L 388.5 227.7 L 374.3 199.0 Z M 490.5 141.4 " fill="#34A4DA"></path><path d="M 18.2 0.0 L 257.8 0.0 C 257.8 0.0 257.8 0.0 257.8 0.0 C 267.8 0.0 276.0 8.1 276.0 18.2 C 276.0 18.2 276.0 18.2 276.0 18.2 C 276.0 18.2 276.0 18.2 276.0 18.2 C 276.0 28.2 267.8 36.4 257.8 36.4 C 257.8 36.4 257.8 36.4 257.8 36.4 L 18.2 36.4 C 18.2 36.4 18.2 36.4 18.2 36.4 C 8.1 36.4 0.0 28.2 0.0 18.2 C 0.0 18.2 0.0 18.2 0.0 18.2 C 0.0 18.2 0.0 18.2 0.0 18.2 C 0.0 8.1 8.1 0.0 18.2 0.0 C 18.2 0.0 18.2 0.0 18.2 0.0 Z M 18.2 0.0 " fill="none" stroke="#E42731" stroke-width="4.00" transform="matrix(1.00, 0.00, 0.00, -1.00, 579.5, 77.9)"></path></g></svg>